<svg xmlns="http://www.w3.org/2000/svg" width="512" height="512" viewBox="0 0 512 512">
  <!-- 圆角背景 -->
  <rect width="512" height="512" fill="#16a34a" rx="112" ry="112"/>

  <!-- 花朵 - 花瓣 -->
  <g transform="translate(256, 230)">
    <!-- 上花瓣 -->
    <ellipse cx="0" cy="-50" rx="35" ry="55" fill="#86efac"/>
    <!-- 右上花瓣 -->
    <ellipse cx="47" cy="-20" rx="35" ry="55" fill="#4ade80" transform="rotate(72 47 -20)"/>
    <!-- 右下花瓣 -->
    <ellipse cx="29" cy="45" rx="35" ry="55" fill="#22c55e" transform="rotate(144 29 45)"/>
    <!-- 左下花瓣 -->
    <ellipse cx="-29" cy="45" rx="35" ry="55" fill="#4ade80" transform="rotate(216 -29 45)"/>
    <!-- 左上花瓣 -->
    <ellipse cx="-47" cy="-20" rx="35" ry="55" fill="#86efac" transform="rotate(288 -47 -20)"/>

    <!-- 花心 -->
    <circle cx="0" cy="0" r="40" fill="#fef3c7"/>
    <circle cx="0" cy="0" r="32" fill="#fde68a"/>

    <!-- 花心细节 -->
    <circle cx="-10" cy="-8" r="6" fill="#fbbf24" opacity="0.6"/>
    <circle cx="12" cy="-5" r="5" fill="#fbbf24" opacity="0.6"/>
    <circle cx="0" cy="12" r="5" fill="#fbbf24" opacity="0.6"/>
    <circle cx="-8" cy="8" r="4" fill="#fbbf24" opacity="0.6"/>
    <circle cx="10" cy="10" r="4" fill="#fbbf24" opacity="0.6"/>
  </g>

  <!-- 叶子 -->
  <g transform="translate(256, 320)">
    <!-- 茎 -->
    <rect x="-4" y="0" width="8" height="80" rx="4" fill="#15803d"/>
    <!-- 左叶 -->
    <ellipse cx="-25" cy="30" rx="30" ry="18" fill="#22c55e" transform="rotate(-20 -25 30)"/>
    <path d="M -40 25 Q -25 30 -10 25" stroke="#15803d" stroke-width="2" fill="none"/>
    <!-- 右叶 -->
    <ellipse cx="25" cy="30" rx="30" ry="18" fill="#4ade80" transform="rotate(20 25 30)"/>
    <path d="M 10 25 Q 25 30 40 25" stroke="#15803d" stroke-width="2" fill="none"/>
  </g>
</svg>