<svg xmlns="http://www.w3.org/2000/svg" width="512" height="512" viewBox="0 0 512 512">
  <!-- 圆角矩形背景 -->
  <rect x="0" y="0" width="512" height="512" rx="112" ry="112" fill="url(#gradient)"/>

  <!-- 渐变定义 -->
  <defs>
    <linearGradient id="gradient" x1="0%" y1="0%" x2="100%" y2="100%">
      <stop offset="0%" stop-color="#16a34a"/>
      <stop offset="100%" stop-color="#22c55e"/>
    </linearGradient>
  </defs>

  <!-- 秤图标 -->
  <g transform="translate(128, 128) scale(1.5)">
    <!-- 秤底座 -->
    <rect x="80" y="160" width="96" height="16" rx="8" fill="#ffffff" opacity="0.9"/>

    <!-- 秤支柱 -->
    <rect x="124" y="96" width="8" height="64" rx="4" fill="#ffffff" opacity="0.9"/>
    <rect x="132" y="96" width="8" height="64" rx="4" fill="#ffffff" opacity="0.9"/>

    <!-- 秤盘 -->
    <ellipse cx="128" cy="64" rx="48" ry="16" fill="#ffffff" opacity="0.9"/>

    <!-- 苹果 -->
    <g transform="translate(40, 40) scale(0.8)">
      <!-- 苹果主体 -->
      <path d="M 64,32 C 56,16 40,8 24,8 8,8 0,16 0,32 0,48 8,64 24,64 40,64 56,56 64,40 Z" fill="#ef4444"/>
      <!-- 苹果茎 -->
      <rect x="30" y="0" width="4" height="12" rx="2" fill="#a85507"/>
      <!-- 苹果叶 -->
      <ellipse cx="38" cy="6" rx="8" ry="4" fill="#22c55e" transform="rotate(-30 38 6)"/>
    </g>

    <!-- 香蕉 -->
    <g transform="translate(160, 40) scale(0.8)">
      <!-- 香蕉主体 -->
      <path d="M 0,32 C 8,16 24,8 40,8 56,8 64,16 64,32 64,48 56,64 40,64 24,64 8,56 0,40 Z" fill="#fbbf24"/>
      <!-- 香蕉柄 -->
      <rect x="28" y="0" width="4" height="12" rx="2" fill="#a85507"/>
    </g>
  </g>

  <!-- 应用名称 -->
  <text x="256" y="440" text-anchor="middle" font-family="Arial, sans-serif" font-size="48" font-weight="bold" fill="#ffffff">NT</text>
</svg>